<svg xmlns="http://www.w3.org/2000/svg" width="1050" height="640" viewBox="0 0 1050 640">
<rect width="100%" height="100%" fill="white"/>
<line x1="90" y1="550.0" x2="1000" y2="550.0" stroke="#e6e6e6" stroke-width="1"/>
<text x="80" y="554.0" font-size="13" text-anchor="end" fill="#333">0</text>
<line x1="90" y1="492.9" x2="1000" y2="492.9" stroke="#e6e6e6" stroke-width="1"/>
<text x="80" y="496.9" font-size="13" text-anchor="end" fill="#333">5</text>
<line x1="90" y1="435.7" x2="1000" y2="435.7" stroke="#e6e6e6" stroke-width="1"/>
<text x="80" y="439.7" font-size="13" text-anchor="end" fill="#333">10</text>
<line x1="90" y1="378.6" x2="1000" y2="378.6" stroke="#e6e6e6" stroke-width="1"/>
<text x="80" y="382.6" font-size="13" text-anchor="end" fill="#333">15</text>
<line x1="90" y1="321.4" x2="1000" y2="321.4" stroke="#e6e6e6" stroke-width="1"/>
<text x="80" y="325.4" font-size="13" text-anchor="end" fill="#333">20</text>
<line x1="90" y1="264.3" x2="1000" y2="264.3" stroke="#e6e6e6" stroke-width="1"/>
<text x="80" y="268.3" font-size="13" text-anchor="end" fill="#333">25</text>
<line x1="90" y1="207.1" x2="1000" y2="207.1" stroke="#e6e6e6" stroke-width="1"/>
<text x="80" y="211.1" font-size="13" text-anchor="end" fill="#333">30</text>
<line x1="90" y1="150.0" x2="1000" y2="150.0" stroke="#e6e6e6" stroke-width="1"/>
<text x="80" y="154.0" font-size="13" text-anchor="end" fill="#333">35</text>
<line x1="90" y1="92.9" x2="1000" y2="92.9" stroke="#e6e6e6" stroke-width="1"/>
<text x="80" y="96.9" font-size="13" text-anchor="end" fill="#333">40</text>
<line x1="90.0" y1="70" x2="90.0" y2="550" stroke="#eeeeee" stroke-width="1"/>
<text x="90.0" y="575" font-size="13" text-anchor="middle" fill="#333">1</text>
<line x1="113.3" y1="70" x2="113.3" y2="550" stroke="#eeeeee" stroke-width="1"/>
<text x="113.3" y="575" font-size="13" text-anchor="middle" fill="#333">2</text>
<line x1="160.0" y1="70" x2="160.0" y2="550" stroke="#eeeeee" stroke-width="1"/>
<text x="160.0" y="575" font-size="13" text-anchor="middle" fill="#333">4</text>
<line x1="230.0" y1="70" x2="230.0" y2="550" stroke="#eeeeee" stroke-width="1"/>
<text x="230.0" y="575" font-size="13" text-anchor="middle" fill="#333">7</text>
<line x1="253.3" y1="70" x2="253.3" y2="550" stroke="#eeeeee" stroke-width="1"/>
<text x="253.3" y="575" font-size="13" text-anchor="middle" fill="#333">8</text>
<line x1="440.0" y1="70" x2="440.0" y2="550" stroke="#eeeeee" stroke-width="1"/>
<text x="440.0" y="575" font-size="13" text-anchor="middle" fill="#333">16</text>
<line x1="533.3" y1="70" x2="533.3" y2="550" stroke="#eeeeee" stroke-width="1"/>
<text x="533.3" y="575" font-size="13" text-anchor="middle" fill="#333">20</text>
<line x1="1000.0" y1="70" x2="1000.0" y2="550" stroke="#eeeeee" stroke-width="1"/>
<text x="1000.0" y="575" font-size="13" text-anchor="middle" fill="#333">40</text>
<polyline points="90.0,538.6 113.3,527.1 160.0,504.3 230.0,470.0 253.3,458.6 440.0,367.1 533.3,321.4 1000.0,92.9" fill="none" stroke="#2CA02C" stroke-width="2.5" stroke-dasharray="8 6"/>
<polyline points="90.0,538.6 113.3,536.6 160.0,531.5 230.0,522.9 253.3,521.5 440.0,505.3 533.3,501.0 1000.0,502.4" fill="none" stroke="#E4572E" stroke-width="3"/>
<circle cx="90.0" cy="538.6" r="4.4" fill="#E4572E"/>
<circle cx="113.3" cy="536.6" r="4.4" fill="#E4572E"/>
<circle cx="160.0" cy="531.5" r="4.4" fill="#E4572E"/>
<circle cx="230.0" cy="522.9" r="4.4" fill="#E4572E"/>
<circle cx="253.3" cy="521.5" r="4.4" fill="#E4572E"/>
<circle cx="440.0" cy="505.3" r="4.4" fill="#E4572E"/>
<circle cx="533.3" cy="501.0" r="4.4" fill="#E4572E"/>
<circle cx="1000.0" cy="502.4" r="4.4" fill="#E4572E"/>
<line x1="90" y1="550" x2="1000" y2="550" stroke="#333" stroke-width="2"/>
<line x1="90" y1="70" x2="90" y2="550" stroke="#333" stroke-width="2"/>
<text x="525.0" y="36" font-size="26" text-anchor="middle" fill="#111">Task 2: Speedup vs Threads</text>
<text x="525.0" y="616" font-size="16" text-anchor="middle" fill="#111">Threads</text>
<text x="24" y="320.0" font-size="16" text-anchor="middle" fill="#111" transform="rotate(-90 24 320.0)">Speedup</text>
<rect x="730" y="82" width="265" height="72" fill="white" stroke="#ccc"/>
<line x1="744" y1="106" x2="794" y2="106" stroke="#E4572E" stroke-width="3"/>
<text x="804" y="111" font-size="14" fill="#111">Measured speedup</text>
<line x1="744" y1="132" x2="794" y2="132" stroke="#2CA02C" stroke-width="2.5" stroke-dasharray="8 6"/>
<text x="804" y="137" font-size="14" fill="#111">Ideal linear speedup</text>
</svg>